<svg xmlns="http://www.w3.org/2000/svg" width="26" height="25" viewBox="0 0 26 25">
  <g id="Icon" transform="translate(0 0.405)">
    <g id="Grupo" opacity="0">
      <rect id="Area" width="26" height="25" transform="translate(0 -0.405)" fill="#5768f3"/>
      <path id="Area_-_Contorno" data-name="Area - Contorno" d="M1,1V24H25V1H1M0,0H26V25H0Z" transform="translate(0 -0.405)" fill="#fd49c6"/>
    </g>
    <g id="Icon-2" data-name="Icon" transform="translate(0 -0.644)">
      <circle id="d54fbda7-a6e0-4214-a100-3cbae5811a2c" cx="2.727" cy="2.727" r="2.727" transform="translate(8.182 8.826)" fill="none" stroke="#5768f3" stroke-linecap="round" stroke-linejoin="round" stroke-width="1.818"/>
      <path id="_0f370c38-8de6-4700-97cb-31799504d7e6" data-name="0f370c38-8de6-4700-97cb-31799504d7e6" d="M17.636,13.636a1.5,1.5,0,0,0,.3,1.655l.055.054a1.819,1.819,0,1,1-2.573,2.573l-.054-.054A1.512,1.512,0,0,0,12.8,18.936v.155a1.818,1.818,0,1,1-3.636,0v-.082a1.5,1.5,0,0,0-.982-1.373,1.5,1.5,0,0,0-1.655.3l-.054.055A1.819,1.819,0,1,1,3.9,15.418l.055-.054A1.512,1.512,0,0,0,2.882,12.8H2.727a1.818,1.818,0,0,1,0-3.636h.082a1.5,1.5,0,0,0,1.373-.982,1.5,1.5,0,0,0-.3-1.655l-.055-.054A1.819,1.819,0,1,1,6.4,3.9l.055.055a1.5,1.5,0,0,0,1.654.3h.073a1.5,1.5,0,0,0,.909-1.373V2.727a1.818,1.818,0,0,1,3.636,0v.082a1.512,1.512,0,0,0,2.564,1.073l.054-.055A1.819,1.819,0,1,1,17.918,6.4l-.054.055a1.5,1.5,0,0,0-.3,1.654v.073a1.5,1.5,0,0,0,1.372.909h.155a1.818,1.818,0,1,1,0,3.636h-.082A1.5,1.5,0,0,0,17.636,13.636Z" transform="translate(0 0.644)" fill="none" stroke="#5768f3" stroke-linecap="round" stroke-linejoin="round" stroke-width="1.818"/>
    </g>
  </g>
</svg>
