<svg id="Icon" xmlns="http://www.w3.org/2000/svg" width="20.952" height="21.904" viewBox="0 0 20.952 21.904">
  <g id="Grupo" opacity="0">
    <rect id="Area" width="20" height="20" fill="#5768f3"/>
    <path id="Area_-_Contorno" data-name="Area - Contorno" d="M1,1V19H19V1H1M0,0H20V20H0Z" fill="#fd49c6"/>
  </g>
  <g id="Icon-2" data-name="Icon" transform="translate(1.29 2.499)">
    <path id="_5636377a-4688-421c-abc5-e0fa363813e7" data-name="5636377a-4688-421c-abc5-e0fa363813e7" d="M20,4.762c0,1.578-3.838,2.857-8.571,2.857S2.857,6.34,2.857,4.762,6.7,1.9,11.429,1.9,20,3.184,20,4.762Z" transform="translate(-1.29 -2.499)" fill="none" stroke="#fff" stroke-linecap="round" stroke-linejoin="round" stroke-width="1.905"/>
    <path id="f62d24fc-710d-446d-b52d-32b26fea0485" d="M20,11.429c0,1.581-3.81,2.857-8.571,2.857S2.857,13.01,2.857,11.429" transform="translate(-1.29 -2.499)" fill="none" stroke="#fff" stroke-linecap="round" stroke-linejoin="round" stroke-width="1.905"/>
    <path id="_5d817b14-af97-462e-9ba2-75a8dfe406af" data-name="5d817b14-af97-462e-9ba2-75a8dfe406af" d="M2.857,4.762V18.095c0,1.581,3.81,2.857,8.572,2.857S20,19.676,20,18.095V4.762" transform="translate(-1.29 -2.499)" fill="none" stroke="#fff" stroke-linecap="round" stroke-linejoin="round" stroke-width="1.905"/>
  </g>
</svg>
